<?xml version="1.0" standalone="no"?>
<!DOCTYPE svg PUBLIC "-//W3C//DTD SVG 20010904//EN"
 "http://www.w3.org/TR/2001/REC-SVG-20010904/DTD/svg10.dtd">
<svg version="1.0" xmlns="http://www.w3.org/2000/svg"
 width="640.000000pt" height="640.000000pt" viewBox="0 0 640.000000 640.000000"
 preserveAspectRatio="xMidYMid meet">
<metadata>
Created by potrace 1.14, written by Peter Selinger 2001-2017
</metadata>
<g transform="translate(0.000000,640.000000) scale(0.100000,-0.100000)"
fill="#000000" stroke="none">
<path d="M3310 5516 c-25 -7 -64 -23 -87 -34 -45 -23 -57 -27 -50 -14 3 4 -29
6 -71 6 -42 -1 -84 3 -93 9 -13 8 -29 7 -61 -3 -23 -7 -49 -15 -56 -16 -7 -1
-24 -9 -37 -18 -13 -9 -31 -16 -40 -16 -8 0 -42 -25 -75 -55 -33 -30 -68 -55
-77 -55 -14 0 -15 -2 -4 -9 11 -7 11 -10 0 -17 -40 -26 -63 -33 -85 -28 -19 5
-24 2 -24 -14 0 -18 -5 -20 -60 -17 -33 2 -71 -2 -84 -8 -20 -10 -22 -17 -19
-52 5 -39 4 -41 -31 -53 -20 -7 -36 -18 -36 -23 0 -5 -14 -9 -31 -9 -25 0 -30
-3 -25 -16 6 -17 -3 -17 -49 2 -18 7 -19 6 -5 -11 14 -17 13 -18 -20 -12 -19
4 -46 19 -61 33 -34 32 -51 13 -20 -20 l22 -23 -26 5 c-17 3 -34 19 -51 48
-14 24 -30 44 -35 44 -4 0 1 -16 13 -35 11 -20 18 -38 15 -42 -4 -3 -16 11
-28 31 -11 20 -25 36 -29 36 -11 0 16 -66 42 -103 31 -44 17 -41 -39 8 -28 25
-54 45 -58 45 -9 0 31 -64 82 -132 29 -38 39 -58 29 -58 -8 0 -26 14 -41 31
-29 35 -44 32 -27 -6 13 -29 7 -34 -36 -29 -23 3 -31 0 -26 -8 5 -7 -2 -9 -20
-6 -22 4 -26 2 -21 -11 5 -13 4 -14 -6 -3 -22 21 -32 13 -15 -13 17 -26 9 -34
-12 -13 -18 18 -28 0 -13 -25 14 -22 14 -22 -8 -3 -11 11 -21 14 -21 9 0 -6 6
-16 14 -22 14 -12 11 -47 -6 -57 -5 -3 -18 2 -29 12 -23 21 -25 8 -2 -18 23
-25 10 -33 -21 -13 -28 18 -36 6 -11 -15 14 -11 13 -14 -5 -27 -11 -8 -25 -11
-30 -8 -12 8 -13 3 0 -29 8 -21 6 -26 -6 -26 -8 0 -12 -5 -8 -11 5 -8 1 -8
-14 0 -28 15 -37 14 -23 -3 9 -11 9 -15 -1 -19 -10 -4 -10 -8 2 -16 22 -15 7
-22 -28 -12 -43 13 -41 -2 2 -17 26 -10 33 -17 29 -32 -4 -16 -9 -18 -24 -9
-11 5 -19 6 -19 0 0 -5 7 -12 16 -15 15 -6 14 -9 -5 -26 l-23 -19 34 -18 33
-17 -35 -6 -35 -6 35 -22 c30 -19 32 -22 13 -22 -12 0 -25 -4 -28 -10 -3 -5 0
-10 8 -10 8 0 22 -9 32 -20 17 -19 17 -20 -13 -33 -29 -12 -30 -13 -12 -25 11
-7 29 -12 40 -12 11 0 20 -4 20 -10 0 -5 -15 -10 -32 -10 -25 0 -29 -3 -18
-10 8 -5 11 -10 5 -10 -5 0 -3 -5 5 -11 12 -8 9 -9 -12 -5 -16 4 -28 2 -28 -3
0 -5 12 -12 28 -14 25 -4 24 -4 -6 -6 -47 -2 -30 -21 21 -22 23 -1 34 -3 25
-6 -24 -6 -23 -22 3 -31 20 -8 19 -9 -8 -21 -25 -12 -26 -14 -11 -25 10 -7 15
-16 11 -20 -4 -4 -1 -11 7 -16 12 -7 5 -18 -33 -53 -26 -25 -47 -47 -47 -51 0
-3 24 5 53 19 l52 26 -40 -35 c-39 -35 -31 -52 11 -21 23 17 43 20 26 3 -17
-17 -15 -28 6 -21 9 3 -1 -10 -23 -30 -43 -39 -33 -51 14 -16 50 37 59 17 13
-29 -23 -23 -42 -45 -42 -49 0 -4 5 -2 12 5 17 17 33 15 18 -3 -15 -18 1 -20
19 -2 20 18 5 -9 -30 -53 -33 -41 -52 -87 -40 -95 5 -2 14 2 21 10 19 22 32
18 20 -6 -7 -11 -13 -35 -15 -52 l-4 -32 19 24 c23 27 27 6 5 -23 -23 -30 -18
-38 10 -20 29 19 29 19 10 -36 -18 -52 -19 -60 -2 -60 6 0 19 -4 27 -10 12 -7
12 -12 -4 -29 -18 -19 -18 -21 -2 -21 9 0 14 -4 11 -10 -3 -5 1 -10 9 -10 10
0 13 -6 10 -15 -5 -11 -2 -13 10 -9 23 9 44 -17 80 -93 16 -35 33 -63 37 -63
6 0 18 43 24 85 0 6 4 17 7 25 3 8 11 69 17 135 5 66 18 188 26 270 19 174 23
306 11 388 -9 56 6 161 24 172 4 3 10 -29 12 -70 5 -82 10 -94 31 -77 11 9 18
2 36 -36 12 -26 31 -58 42 -72 l20 -25 -7 38 c-3 21 -2 37 3 37 5 0 15 48 22
108 17 154 26 212 43 256 13 34 16 37 23 20 7 -15 15 -271 15 -456 0 -45 15
-32 34 29 17 54 65 115 87 110 8 -2 51 110 116 303 14 41 30 81 35 87 6 7 16
30 24 50 12 35 13 30 8 -62 -3 -55 -10 -143 -15 -195 -15 -129 -16 -139 -24
-184 -6 -28 -4 -41 6 -47 24 -15 26 -11 32 64 4 39 15 97 26 128 11 31 27 88
36 127 17 76 32 98 22 35 -8 -51 -10 -61 -47 -198 -21 -78 -29 -126 -24 -144
8 -29 4 -39 41 104 17 66 62 170 70 162 2 -3 -1 -15 -7 -27 -48 -90 -95 -290
-71 -305 16 -9 20 -4 36 42 l14 38 1 -37 c0 -61 29 -50 46 17 2 6 13 46 24 90
12 44 31 96 43 115 25 42 117 141 170 182 l37 30 -6 -58 c-4 -33 -13 -76 -21
-98 -32 -92 -9 -100 37 -13 18 34 39 71 47 82 14 19 14 18 9 -10 -11 -60 -10
-155 2 -155 4 0 22 33 40 73 52 117 99 161 73 70 -11 -39 3 -53 20 -21 l12 22
8 -22 c11 -28 23 -28 38 1 l11 22 -6 -22 c-10 -43 15 -23 40 31 14 30 26 59
26 64 0 5 18 29 41 53 22 24 47 56 55 71 14 26 36 47 33 31 -3 -20 2 -25 16
-13 13 10 15 9 15 -9 0 -30 14 -26 41 13 29 43 43 36 34 -15 -8 -44 10 -55 25
-15 15 40 30 41 30 2 0 -41 17 -48 26 -11 3 14 10 25 14 25 14 0 18 -53 13
-144 -5 -66 -3 -87 5 -82 8 5 12 -3 12 -23 0 -54 14 -34 49 69 19 55 40 105
47 111 8 6 14 30 14 55 0 24 5 67 11 96 11 49 12 51 21 28 5 -14 15 -53 21
-88 17 -92 34 -82 52 31 4 24 10 35 17 31 6 -4 16 0 23 9 9 13 14 1 25 -61 15
-89 21 -103 31 -76 6 16 8 15 8 -8 1 -26 17 -46 28 -34 3 3 11 52 17 110 7 58
15 108 18 111 3 3 8 -11 11 -31 8 -47 25 -68 43 -53 11 9 14 9 14 0 0 -6 10
-32 21 -57 22 -46 35 -48 43 -4 2 14 5 27 6 30 4 18 82 -168 100 -237 12 -46
30 -58 30 -19 0 17 5 23 17 22 15 -1 19 10 25 59 8 68 25 140 27 111 1 -11 20
-78 43 -150 65 -206 66 -217 67 -661 0 -385 8 -526 30 -548 6 -6 11 -7 11 -3
0 5 6 4 13 -2 7 -6 17 -8 23 -4 18 12 92 203 99 257 10 70 6 254 -6 276 -15
28 -16 119 -2 166 8 29 9 53 3 75 -7 21 -6 34 0 38 12 7 13 30 7 160 -2 52 -8
104 -14 115 -6 11 -11 42 -12 68 -1 27 -6 57 -11 67 -6 10 -10 27 -9 37 0 16
2 15 16 -4 8 -13 20 -23 26 -23 5 0 2 9 -8 20 -25 28 -14 35 17 10 41 -32 38
-13 -4 33 -44 47 -74 97 -58 97 18 0 10 18 -11 23 -12 3 -18 10 -15 16 5 7 15
7 31 1 33 -13 33 5 -1 26 -14 10 -38 36 -54 59 -16 23 -52 69 -80 101 -27 33
-50 64 -50 71 0 6 -8 18 -17 25 -10 7 -38 39 -62 71 -25 33 -60 69 -78 81 -18
13 -30 25 -27 29 3 3 -9 12 -27 20 -41 18 -119 85 -119 103 0 7 -15 16 -34 20
-19 3 -59 21 -88 40 -29 19 -56 34 -60 34 -8 0 -31 18 -72 58 -13 12 -28 22
-33 22 -6 0 -16 7 -23 15 -7 8 -29 15 -49 15 -27 0 -32 3 -21 10 9 6 45 8 90
4 58 -5 72 -3 64 6 -7 7 -64 15 -139 20 -69 5 -129 11 -132 14 -4 3 3 6 15 6
24 0 30 15 9 23 -7 3 -25 3 -40 0 -15 -3 -33 -1 -40 5 -18 15 -215 17 -251 3
-54 -22 -36 -4 23 23 32 14 76 26 97 26 22 0 46 5 54 10 22 14 -105 11 -160
-4z m-1168 -1383 c-6 -110 -12 -120 -12 -20 0 65 6 107 15 107 1 0 0 -39 -3
-87z"/>
<path d="M3720 3850 c-61 -9 -180 -44 -223 -67 -72 -37 -91 -103 -41 -142 33
-26 40 -26 89 1 72 38 157 59 268 65 94 5 110 9 122 27 20 28 19 69 -4 97 -16
20 -29 24 -87 25 -38 1 -94 -1 -124 -6z"/>
<path d="M2685 3769 c-22 -4 -74 -12 -115 -18 -128 -17 -270 -104 -270 -165 0
-32 36 -66 70 -66 16 0 52 13 78 30 66 41 114 56 199 64 88 8 120 21 140 59
32 62 -20 111 -102 96z"/>
<path d="M3623 3424 c-42 -18 -101 -78 -109 -109 -4 -15 -1 -32 6 -40 21 -26
48 -17 74 23 36 57 101 78 187 62 43 -8 60 -18 85 -47 27 -32 33 -34 52 -24
13 7 22 21 22 36 0 34 -58 91 -105 104 -55 15 -173 12 -212 -5z"/>
<path d="M2580 3371 c-91 -32 -156 -121 -118 -159 21 -21 46 -13 67 23 24 40
87 74 139 75 40 0 99 -24 128 -51 25 -23 52 -22 67 3 19 29 -7 63 -69 94 -73
36 -142 41 -214 15z"/>
<path d="M3177 2973 c-4 -3 -7 -29 -7 -57 0 -28 -6 -84 -14 -124 l-14 -74 47
-60 c54 -72 75 -88 92 -71 9 9 -1 26 -40 70 -51 56 -52 60 -47 103 24 173 17
248 -17 213z"/>
<path d="M2980 1856 c0 -30 95 -85 172 -100 85 -16 310 50 316 93 2 11 1 21
-2 21 -2 0 -37 -13 -78 -29 -85 -34 -185 -54 -225 -45 -46 10 -105 34 -134 55
-32 23 -49 24 -49 5z"/>
<path d="M3090 1726 c0 -8 17 -28 37 -43 34 -26 43 -28 122 -27 75 0 92 4 134
28 26 15 47 32 47 37 0 13 -5 12 -62 -18 -69 -36 -141 -41 -202 -15 -25 12
-49 28 -52 36 -8 20 -24 21 -24 2z"/>
</g>
</svg>
